<svg width="79" height="80" viewBox="0 0 79 80" fill="none" xmlns="http://www.w3.org/2000/svg">
<path d="M17.9131 27.1593C17.5785 27.2836 17.3361 27.408 17.0766 27.4552C16.9286 27.4831 16.6369 27.4209 16.6133 27.3394C16.4868 26.9019 16.1329 26.8719 15.7962 26.8075C14.6573 26.593 14.0096 25.8488 13.6836 24.7957C13.6257 24.607 13.6707 24.3282 13.7758 24.1566C15.616 21.1582 17.038 17.9668 18.3013 14.6896C18.7624 13.4928 19.3093 12.193 20.1994 11.3373C21.1088 10.4601 21.7994 9.43486 22.6637 8.54693C22.8353 8.36891 23.0069 8.1909 23.172 8.00644C24.4932 6.54157 26.2133 5.69867 27.9956 4.98446C28.8085 4.65846 29.6857 4.49116 30.5265 4.22521C31.0948 4.04505 31.6332 3.72548 32.2123 3.6354C35.3844 3.13138 38.5865 3.1228 41.7779 3.32012C43.7232 3.44023 45.6685 3.69116 47.5881 4.04076C48.7356 4.2488 49.9281 4.54264 50.8139 5.43272C51.2257 5.84666 51.8004 5.76945 52.2723 5.95604C53.1667 6.30993 54.0374 6.76248 54.846 7.28795C57.1109 8.75711 58.9425 10.666 60.3366 12.9845C60.4117 13.1067 60.3409 13.3105 60.3709 13.4692C60.4031 13.63 60.4396 13.8102 60.5361 13.9346C61.4262 15.0649 62.2326 16.2874 63.2578 17.2826C64.6112 18.5952 64.8642 19.985 64.1093 21.6408C63.8626 22.1834 63.6632 22.7603 63.3414 23.2558C63.0905 23.644 62.683 23.9335 62.3463 24.2681C62.2969 24.2316 62.2476 24.193 62.2004 24.1566C62.224 23.9893 62.2476 23.822 62.2927 23.5003C62.0696 23.7727 61.9366 23.9335 61.7951 24.1072C61.3168 23.882 61.1838 24.0257 61.2267 24.5576C61.364 26.237 61.4069 27.9249 61.5742 29.6C61.7307 31.1657 61.0465 32.4118 60.2251 33.6815C60.5897 33.8552 60.9693 33.9989 61.3146 34.2048C63.275 35.3716 65.0251 36.7507 65.913 38.9555C66.2026 39.674 66.3484 40.4075 65.9323 41.2761C66.3977 41.5442 66.8803 41.7802 67.3114 42.0847C67.6953 42.3571 68.0878 42.6574 68.3624 43.0306C69.261 44.2595 70.2369 45.4584 70.9254 46.8011C71.3822 47.6933 71.8133 48.5662 72.4031 49.3898C73.5291 50.9619 73.2846 52.6541 71.8841 53.9732C71.7661 54.0847 71.6374 54.1984 71.5559 54.3356C71.0712 55.1678 70.653 56.045 70.1146 56.8386C68.9565 58.5415 67.3994 59.5646 65.2503 59.5217C64.0771 59.4981 62.9039 59.5367 61.7307 59.5539C61.5913 59.556 61.4176 59.5603 61.3168 59.6375C60.1307 60.534 58.8096 60.296 57.5098 60.06C57.0487 59.9764 56.8085 60.0322 56.5811 60.4633C56.1994 61.1903 55.7468 61.881 55.3136 62.5823C55.009 63.0734 55.2149 64.5683 55.6567 64.9501C56.6369 65.7952 57.5248 66.756 57.9774 67.9571C58.4214 69.1367 58.7688 70.4129 58.4342 71.6911C58.3227 72.118 57.9474 72.5941 57.5592 72.8021C56.8235 73.1946 55.9935 73.4112 55.202 73.6965C54.9661 73.7823 54.5565 73.6343 54.6294 74.1426C54.6358 74.1834 54.3978 74.282 54.2648 74.3142C52.7034 74.6852 51.142 75.0627 49.5742 75.4123C48.4289 75.6675 47.2128 75.7254 46.1404 76.1523C44.4761 76.815 42.7946 76.4783 41.1259 76.5169C39.3243 76.5598 37.5163 76.4225 35.7147 76.3045C35.1356 76.2659 34.5758 75.985 33.9967 75.9056C33.2353 75.8005 32.4482 75.8541 31.6975 75.7104C30.6959 75.5174 29.705 75.2321 28.7313 74.9233C27.9463 74.6745 27.1892 74.3399 26.4235 74.0332C25.7758 73.7737 25.6964 73.5614 25.8444 72.5769C25.9388 71.9528 26.0267 71.3287 26.1211 70.7045C26.1447 70.5415 26.164 70.3742 26.2176 70.2198C26.8396 68.3946 26.3678 66.5373 26.312 64.7013C26.297 64.2273 25.7822 63.6418 25.3383 63.333C24.0107 62.4064 22.5844 61.6193 21.2375 60.7185C20.8343 60.4482 20.5297 60.1244 19.9871 60.3003C19.8541 60.3432 19.6611 60.2037 19.4959 60.1458C18.9447 59.9528 18.4085 59.6525 17.8423 59.5818C15.8005 59.3244 13.7522 59.0928 11.6997 58.9469C9.76509 58.8075 8.32595 57.8659 7.13131 56.4354C6.41496 55.5753 5.52702 54.9576 4.48038 54.5716C3.89914 54.3571 3.79405 53.8853 3.88842 53.3812C4.08574 52.311 4.34955 51.2558 4.56617 50.1898C4.88145 48.6391 5.74365 47.496 7.097 46.6981C7.5045 46.4579 7.89914 46.1941 8.29163 45.9281C8.40531 45.8509 8.54257 45.7501 8.58118 45.63C9.05303 44.1458 10.0353 42.9662 10.8975 41.7137C11.2021 41.2718 11.5217 40.8429 11.8391 40.4096C12.0772 40.0858 12.3174 39.8885 12.7849 39.7748C13.2825 39.6547 13.7908 39.1142 14.0589 38.6295C14.3763 38.0547 14.445 37.3405 14.6187 36.6863C14.934 35.5046 15.7447 34.6895 16.6863 33.9989C17.0959 33.6987 17.6085 33.5378 18.0375 33.259C18.2112 33.1453 18.3871 32.8815 18.3892 32.682C18.3978 32.045 18.327 31.408 18.2884 30.771C18.2841 30.6895 18.3141 30.578 18.2713 30.5287C17.4884 29.6 17.9259 28.5298 17.9109 27.5131C17.9109 27.408 17.9131 27.3072 17.9131 27.1593ZM40.5854 40.1137C40.2637 40.1415 39.9356 40.1394 39.6203 40.2016C38.0482 40.5062 36.4761 40.6177 34.8889 40.3174C34.6959 40.281 34.4471 40.2595 34.2927 40.3496C32.8514 41.1839 31.2407 41.1389 29.6686 41.2461C29.2182 41.2783 28.6627 41.2311 28.3088 40.993C27.1463 40.2059 25.7393 40.1844 24.5061 39.6418C23.8391 39.348 23.1227 39.1571 22.4836 38.8161C21.5549 38.3228 20.6734 37.7373 19.7361 37.1689C18.7839 38.9126 19.1914 40.6348 19.3415 42.5029C19.8991 42.2777 20.3281 42.1105 20.7527 41.9303C21.6192 41.5635 22.475 41.1732 23.3501 40.8279C23.7747 40.6606 24.0128 40.9094 23.9656 41.319C23.8519 42.3206 23.7876 43.3415 23.5216 44.3067C23.142 45.6879 23.1871 47.0113 23.9249 48.2037C24.8214 49.6558 25.8101 51.0606 26.8589 52.4075C27.9678 53.8316 29.2868 54.889 31.3029 54.8075C33.3232 54.726 35.3286 54.7903 37.2632 54.0053C38.0568 53.6836 38.9533 53.6043 39.8069 53.437C40.1243 53.3748 40.4761 53.4734 40.3045 53.8724C40.1286 54.282 39.7962 54.6295 39.5152 54.9898C38.786 55.9249 37.6214 56.1201 36.6434 56.6198C35.9613 56.9673 35.1699 57.0981 34.3484 57.3491C34.5114 57.4906 34.6337 57.6686 34.801 57.7287C35.3608 57.9303 35.9356 58.0868 36.5039 58.2692C36.7527 58.3485 36.9929 58.4536 37.2353 58.5458C35.8198 59.1314 34.4493 58.4944 32.9329 58.6123C33.2139 59.1871 33.3232 59.7748 33.6771 60.0729C35.3007 61.4434 37.2203 62.1448 39.3415 62.2563C39.5345 62.267 39.8069 62.1126 39.927 61.9496C40.7742 60.8 40.4224 59.4874 40.3967 58.2177C40.3881 57.7823 40.416 57.3448 40.4632 56.9115C40.519 56.4118 40.9114 56.3882 41.2503 56.5062C41.4669 56.5812 41.7479 56.83 41.7736 57.0295C41.8401 57.5485 42.1018 57.8981 42.5415 58.0633C43.0734 58.2627 43.6375 58.385 44.1951 58.5029C44.6476 58.5994 45.113 58.6381 45.6685 58.7153C44.1458 59.6761 42.6165 58.9019 41.2246 58.9812C40.8879 59.9893 41.6171 60.5255 42.0031 61.1925C42.4214 61.9196 43.0627 62.2091 43.9098 62.1984C44.5318 62.1898 45.1559 62.3271 45.8702 62.4107C44.5275 63.3094 42.8932 63.4423 41.2546 62.7775C41.2074 63.1807 40.9929 63.704 41.1538 63.8756C41.6278 64.3839 42.2047 64.8579 42.8332 65.1432C43.3522 65.3791 44.0063 65.3062 44.5962 65.4027C45.3597 65.5271 46.0031 65.2933 46.6294 64.8708C47.245 64.4568 47.9055 64.1094 48.697 63.6461C48.386 64.1544 48.2122 64.549 47.9399 64.8579C46.9168 66.0182 45.6578 66.5952 44.0793 66.2906C43.8991 66.2563 43.6718 66.1769 43.5388 66.2499C42.7474 66.6917 42.0396 66.4793 41.3383 66.0482C41.2932 66.0204 41.2246 66.0332 41.1538 66.0246C41.0616 66.1791 40.9715 66.3292 40.8836 66.4772C40.8106 66.4772 40.7399 66.4793 40.6669 66.4793C40.5597 65.3683 40.4503 64.2595 40.3495 63.2236C37.7157 63.0391 35.1098 63.1914 32.7785 61.7651C33.5034 62.7582 34.2648 63.6997 35.0026 64.6606C35.1635 64.8708 35.2299 65.156 35.3415 65.407C35.2664 65.452 35.1935 65.497 35.1184 65.5421C33.5206 64.3367 31.6546 63.4273 30.8546 61.4885C29.9259 61.6793 29.0766 61.8531 28.1994 62.0332C30.0074 64.6927 31.8112 67.3415 33.6149 69.9925C33.5871 70.0225 33.5592 70.0547 33.5313 70.0847C32.1908 69.3233 30.8525 68.5619 29.4605 67.7705C28.4439 69.1453 27.0562 70.3657 26.9855 72.3539C29.0594 72.9823 31.1013 73.5893 33.2868 73.7394C33.2267 72.9673 32.8257 72.2874 33.2804 71.4938C34.0718 72.2145 34.7517 72.9287 35.5259 73.5163C36.2208 74.0418 36.9694 74.6295 37.7822 74.8375C40.3002 75.4767 42.8589 75.3287 45.3811 74.7689C46.4471 74.533 47.4702 74.1662 48.1222 73.156C48.5018 72.5662 48.9779 72.0364 49.409 71.4809C49.4734 71.4917 49.5356 71.5045 49.5999 71.5153C49.5227 72.163 49.4433 72.8107 49.364 73.4691C51.2385 72.5641 53.3168 73.3212 55.2128 72.8943C55.438 70.5415 54.5222 68.5576 53.409 66.5222C53.2889 67.4852 51.764 68.948 50.9919 69.0638C50.9232 68.7549 50.8653 68.4654 50.7924 68.1801C50.7109 67.8606 50.5929 67.5496 50.5393 67.2257C50.5157 67.0863 50.5865 66.9083 50.668 66.7839C50.7881 66.6016 51.0369 66.4772 51.097 66.2842C51.6782 64.4096 52.0771 62.4986 52.1715 60.5297C52.1801 60.3667 52.1844 60.1844 52.2594 60.0472C52.7399 59.1592 52.5168 58.5008 51.5774 58.0783C51.4916 58.0397 51.4058 57.956 51.3651 57.8724C51.2171 57.5828 51.039 57.5485 50.7688 57.7244C50.6701 57.7866 50.4299 57.8016 50.3913 57.7458C50.3163 57.6343 50.3227 57.4584 50.3227 57.3083C50.3227 57.2182 50.3742 57.126 50.4042 57.0295C49.6364 57.4391 48.9179 57.8359 48.1822 58.1984C48.0514 58.2627 47.8455 58.1769 47.6761 58.1598C47.7318 57.9839 47.7382 57.7608 47.8541 57.6407C48.0728 57.4091 48.3517 57.2375 48.5747 57.0638C47.4744 56.8558 46.3463 56.7185 45.2653 56.4182C44.1844 56.118 43.1613 55.6161 42.0889 55.2708C41.3018 55.0177 40.92 54.4429 40.7013 53.7394C40.431 52.8772 40.1694 52 40.0321 51.1099C39.912 50.3271 39.7876 49.467 39.9935 48.7314C40.283 47.6976 40.8063 46.7067 41.364 45.778C41.8444 44.978 42.5157 44.2917 43.1549 43.4874C43.1549 44.1158 43.2643 44.5877 43.1356 44.9823C42.7045 46.3078 42.2841 47.5989 42.2691 49.0402C42.2519 50.5523 42.1189 52.0279 42.8074 53.4563C43.1742 54.2198 43.7254 54.7432 44.4653 55.0284C45.1881 55.3072 45.971 55.4338 46.7173 55.6547C47.6546 55.9335 48.5447 55.6675 49.2846 55.2C50.3356 54.5351 51.3136 53.7287 52.2337 52.8858C53.2653 51.9399 54.1919 50.8826 55.172 49.8788C55.2921 49.7544 55.4551 49.6708 55.5967 49.5678C54.1211 51.9292 52.3302 53.9474 50.0353 55.5088C51.0176 55.2472 51.972 54.9276 52.9264 54.6102C53.4541 54.4343 54.1125 54.4 54.4814 54.0547C55.3608 53.2311 56.3388 52.3775 56.8471 51.3287C57.6835 49.6021 58.1897 47.7126 58.8096 45.8831C58.9189 45.5592 58.9597 45.1925 58.9404 44.8515C58.9018 44.1673 58.4986 43.8434 57.8208 43.8756C57.4476 43.8928 57.0723 43.9121 56.6991 43.9314C56.6841 43.8692 56.6669 43.807 56.6519 43.7448C56.9801 43.629 57.3232 43.3844 57.6321 43.4231C58.4642 43.5303 59.0927 43.1314 59.7382 42.7496C60.0878 42.5416 60.386 42.2434 60.7398 42.0461C60.9479 41.9303 61.2246 41.911 61.4691 41.9088C61.5227 41.9088 61.6385 42.1748 61.6256 42.3078C61.4347 44.148 61.5484 45.9603 62.0739 47.7426C62.3634 48.7206 62.357 48.6885 63.3693 48.7314C64.5018 48.7785 65.6321 48.9244 66.6187 49.5507C67.1463 49.8852 67.1935 50.2842 66.8353 50.8011C66.3935 50.6681 65.9452 50.5308 65.4927 50.4021C65.276 50.3399 65.0423 50.222 64.8385 50.2541C64.2894 50.3421 63.7511 50.5051 63.2063 50.6231C62.5243 50.771 61.75 50.7088 61.3704 51.496C61.3404 51.5582 61.2396 51.5968 61.1645 51.6289C60.7935 51.7812 60.3752 51.8541 60.2487 52.3474C60.2272 52.4311 59.927 52.5383 59.8283 52.489C59.3994 52.2724 59.2321 52.5448 59.0562 52.8365C58.8653 53.1539 58.6466 53.4606 58.4878 53.793C57.9152 54.9834 57.6063 56.163 58.6916 57.2697C58.876 57.4563 58.9597 57.7415 59.1441 57.9281C59.3393 58.1255 59.5881 58.3721 59.8348 58.4C61.0594 58.5351 62.2948 58.5759 63.5195 58.711C64.3516 58.8032 65.0658 58.6445 65.675 58.0611C66.3613 57.4027 67.0519 56.7442 67.7404 56.0879C67.6953 56.0343 67.6524 55.9807 67.6074 55.9271C66.6937 56.178 65.7822 56.4289 64.7012 56.7249C65.1924 56.2831 65.4862 55.8155 65.8894 55.6933C66.8953 55.3823 67.5945 54.7324 68.2508 53.9818C68.5232 53.6686 68.8235 53.3791 69.1087 53.0788C69.1688 53.126 69.231 53.1732 69.291 53.2204C69.0101 53.6407 68.7291 54.0611 68.4482 54.4815C69.6664 54.0011 70.9854 53.6879 71.5538 52.3217C72.1758 52.6306 72.3731 52.5812 72.3259 52.1137C72.2294 51.155 72.0471 50.2241 71.4487 49.4048C70.4664 48.06 69.527 46.6831 68.5876 45.3083C68.3924 45.0231 68.165 44.6928 68.1414 44.371C68.0964 43.7405 67.6782 43.4316 67.2599 43.1164C66.4256 42.4901 65.5591 41.9046 64.7184 41.2869C64.401 41.0531 64.0299 40.6863 64.3795 40.3496C64.6841 40.0558 64.5919 39.8584 64.4953 39.6075C64.1372 38.681 63.5924 37.8531 62.7323 37.3598C61.6642 36.7485 60.5275 36.2574 59.4079 35.7405C59.2878 35.6847 59.039 35.7598 58.9318 35.8627C58.698 36.0858 58.52 36.3668 58.2562 36.7013C60.5061 36.8579 61.4905 38.355 62.209 40.1501C61.8423 40.0236 61.4819 39.8692 61.2524 39.6011C60.5168 38.7346 59.601 38.1984 58.5307 37.8617C58.1876 37.7544 57.8787 37.5399 57.5549 37.3748C57.5506 37.2954 57.5463 37.2182 57.542 37.1389C56.2187 38.4129 55.2085 39.9442 54.0653 41.4155C54.1361 41.0917 54.2069 40.7678 54.312 40.281C53.8273 40.8493 53.6171 40.4118 53.3189 40.2295C53.1066 40.1008 52.8042 39.9507 52.5983 40.0107C51.2235 40.4075 49.8423 40.459 48.4332 40.2424C47.824 40.148 47.1999 40.1501 46.5929 40.0536C45.8852 39.9442 45.1881 39.7533 44.4803 39.6418C44.1608 39.5925 43.7897 39.5668 43.5045 39.6826C42.4943 40.0901 41.4777 40.4204 40.1736 40.4161C40.4031 40.2466 40.4932 40.1802 40.5812 40.1137C40.9801 39.8649 41.379 39.6161 41.8723 39.3094C41.5013 39.3587 41.2482 39.3952 40.993 39.4295C40.9865 39.3909 40.9801 39.3523 40.9736 39.3115C41.1366 39.1936 41.2996 39.0756 41.542 38.9019C39.5173 38.8826 37.6664 39.2493 35.824 39.7083C36.0686 39.8263 36.3088 39.867 36.5468 39.867C37.6171 39.8649 38.6873 39.8327 39.7554 39.8542C40.0321 39.8584 40.3088 40.0214 40.5854 40.1137ZM26.9576 27.3952C27.2986 26.9619 27.5903 26.5458 27.9313 26.1748C28.0578 26.0375 28.2959 26.0032 28.4846 25.9239C28.4525 26.1169 28.4868 26.37 28.3753 26.4922C28.0857 26.8097 27.7468 27.0885 27.3972 27.3437C27.1292 27.5389 27.097 27.6997 27.1549 28.0493C27.2364 28.5405 27.2643 29.171 27.0198 29.5528C26.6637 30.1126 26.0396 30.5008 25.5399 30.9727C25.379 31.1271 25.201 31.2965 25.1174 31.4938C24.6477 32.6027 25.2718 34.4622 26.3678 35.0155C27.0948 35.3823 27.8948 35.6118 28.6712 35.8777C28.9393 35.97 29.2332 36 29.5184 36.0279C30.0761 36.0836 30.6466 36.208 31.1913 36.1416C31.9291 36.0493 32.6434 35.7619 33.379 35.6375C34.0804 35.5196 34.5801 35.2 34.9147 34.5759C34.9704 34.4708 35.2321 34.355 35.305 34.4C36.0192 34.8268 36.8278 35.1828 37.3854 35.7684C37.9924 36.4054 38.8117 36.8665 39.631 36.5212C40.6133 36.1094 41.5656 35.6225 42.5586 35.1571C43.097 35.8606 42.1533 36.133 42.0546 36.8C43.2106 37.3105 44.3731 37.8445 45.5527 38.3378C46.0632 38.5523 46.6273 38.6466 47.1356 38.8654C48.1715 39.3137 49.2417 39.4466 50.3356 39.2365C52.431 38.8375 54.4428 38.2134 56.1758 36.8944C56.371 36.7442 56.5811 36.6005 56.8042 36.5019C57.8465 36.0472 58.4321 35.1957 58.8203 34.1877C59.2407 33.1024 59.4894 31.9828 59.3929 30.8032C59.3415 30.1769 59.3307 29.5485 59.3007 28.8944C59.4337 28.963 59.5216 29.0102 59.6396 29.0724C59.5602 28.4118 59.4894 27.807 59.4144 27.1936C58.2798 27.3716 57.0809 27.185 55.8884 26.756C55.2535 26.5287 54.5543 26.4836 54.001 26.3764C53.9516 27.481 53.853 28.4633 53.8787 29.4413C53.9152 30.8054 53.3018 31.8584 52.3323 32.6735C51.2021 33.6236 49.9602 34.4407 48.7592 35.3072C48.6712 35.3716 48.5297 35.3609 48.4139 35.3844C48.5297 35.1571 48.6905 35.0349 48.8428 34.904C49.9602 33.9582 51.1141 33.0531 52.1715 32.0472C52.6133 31.6268 53.0273 31.0284 53.1431 30.4493C53.3468 29.4306 53.3061 28.3625 53.3769 27.3137C53.4219 26.6295 53.2567 26.1298 52.4696 25.9861C52.1157 25.9217 51.764 25.7394 51.4573 25.5378C51.0305 25.2568 50.6294 24.9287 50.2626 24.5748C50.1533 24.4697 50.1897 24.2102 50.1597 24.0215C50.3377 24.0622 50.5372 24.0643 50.6895 24.1523C51.1892 24.4375 51.6353 24.8579 52.1651 25.0402C53.6793 25.5635 55.2085 26.0676 56.7656 26.4322C57.6557 26.6424 58.6122 26.5694 59.6117 26.6295C59.4401 25.733 59.2964 25.0316 59.172 24.3239C58.8482 22.4772 58.5479 20.6284 58.2069 18.7839C57.3983 14.4172 54.6659 11.0434 52.2594 7.53031C51.1034 5.84237 49.1795 5.0917 47.2321 4.59626C44.8342 3.98714 42.3742 4.0665 39.957 4.07293C41.7286 4.91583 43.5238 5.77159 45.3189 6.62521C45.2846 6.70457 45.2503 6.78392 45.2139 6.86328C42.8996 5.85309 40.6562 4.58339 38.0718 4.46328C35.5388 4.34532 33.0187 4.52548 30.5436 5.3169C30.7881 5.89385 30.4943 6.22843 30.0761 6.58232C29.5935 6.98982 29.0916 7.43379 28.7785 7.96569C28.0707 9.17106 27.3994 10.4086 26.8439 11.6912C25.2761 15.3072 24.9672 19.1314 25.0959 23.022C25.1517 24.6349 25.8552 25.9367 26.9576 27.3952ZM6.41496 52.6649C7.00048 53.1238 7.65893 53.4692 8.06214 54.0053C8.40745 54.4665 8.7978 54.6552 9.28681 54.8054C9.73935 54.9448 10.179 55.1314 10.6359 55.2515C11.6632 55.5217 12.6948 55.7726 13.7308 56.0129C14.0589 56.0879 14.4042 56.1008 14.741 56.1415C14.7324 56.2381 14.7238 56.3346 14.7152 56.4311C13.0316 56.4311 11.3479 56.4311 9.66429 56.4311C9.64498 56.534 9.62568 56.6391 9.60638 56.7421C10.4557 57.0745 11.2814 57.5335 12.1629 57.7051C13.3511 57.9367 14.5801 57.9903 15.794 58.0332C16.2595 58.0504 16.7399 57.8402 17.2053 57.7094C17.542 57.6129 17.8573 57.4241 18.1962 57.3641C18.8632 57.2461 19.5624 57.2675 20.2101 57.0917C20.9501 56.8901 21.6493 56.5405 22.3613 56.2445C23.0863 55.9421 23.3308 55.2944 22.9897 54.6037C22.8804 54.3828 22.6809 54.1748 22.6573 53.9453C22.5672 53.0659 21.8616 52.9394 21.2332 52.7464C20.845 52.6263 20.4225 52.622 20.0192 52.5383C19.764 52.4847 19.5195 52.3818 19.275 52.2938C18.1211 51.8799 16.9758 51.4424 15.8112 51.0541C15.3351 50.8954 14.8246 50.8461 14.3292 50.7474C14.3335 50.7067 14.3377 50.6659 14.342 50.6231C14.52 50.5759 14.6981 50.5287 14.7624 50.5115C14.3763 50.0054 14.0032 49.5163 13.6278 49.0273C13.6557 48.9802 13.6836 48.9308 13.7115 48.8836C14.7603 49.2204 15.8219 49.5206 16.8514 49.9024C17.5592 50.1641 18.2048 50.0933 18.7967 49.7051C19.3458 49.3469 19.8455 48.9094 20.3388 48.4761C20.4503 48.3796 20.5275 48.1373 20.4932 47.9957C20.2487 47.0048 19.9956 46.0118 19.6825 45.0424C19.601 44.7871 19.3136 44.5855 19.0927 44.3882C18.5951 43.9442 17.9903 43.6375 17.7415 42.9276C17.5013 42.2456 17.068 41.63 16.371 41.3383C15.9485 41.1625 15.4466 41.0016 15.0133 41.0638C14.0053 41.2096 13.2611 41.8316 12.7377 42.7046C11.9999 43.9356 11.2922 45.1818 11.7383 46.7046C11.7876 46.8718 11.9377 47.0112 12.0579 47.1507C12.2187 47.3373 12.3946 47.5088 12.5662 47.6869C12.3474 47.8348 12.1458 48.03 11.9034 48.1222C11.1999 48.3903 10.4128 48.504 9.78439 48.8858C8.29163 49.7952 7.29646 51.1914 6.41496 52.6649ZM56.1286 9.97963C56.075 10.0311 56.0192 10.0847 55.9656 10.1362C56.8385 11.8284 57.705 13.5228 58.5822 15.2129C59.734 17.4284 60.3709 19.807 60.8621 22.237C60.8986 22.415 61.0809 22.5652 61.1967 22.7282C61.3232 22.5652 61.4519 22.4043 61.5806 22.2413C61.6986 22.0933 61.5398 21.6429 62.0053 21.8617C62.0546 21.8853 62.2004 21.7587 62.2648 21.6729C62.4599 21.4177 62.6401 21.1496 62.8224 20.8901C62.964 20.9587 63.0798 21.0145 63.1935 21.0681C63.7597 19.9743 63.6868 19.0284 62.7752 18.1834C62.3098 17.7501 61.8723 17.2761 61.4734 16.7807C60.4181 15.4681 59.3886 14.1341 58.3506 12.8086C57.6085 11.8649 56.8685 10.9233 56.1286 9.97963ZM17.3576 24.7914C17.8144 23.1142 18.2412 21.5078 18.6916 19.9056C19.5066 17.0016 20.416 14.1405 22.2712 11.6869C22.683 11.1421 23.0434 10.5609 23.4273 9.99679C21.4712 11.5582 20.1544 13.57 19.2407 15.852C18.683 17.2461 18.2584 18.696 17.6793 20.0815C17.2074 21.2118 16.5704 22.2735 16.0643 23.393C15.9613 23.6204 16.0064 24.0837 16.1694 24.2274C16.4611 24.4869 16.8943 24.5855 17.3576 24.7914ZM54.2755 65.2525C53.5677 66.119 53.5742 66.1147 54.1018 66.8933C55.2836 68.6327 56.0128 70.5158 55.912 72.6563C55.9506 72.6563 55.9956 72.667 56.0321 72.6541C56.3002 72.5512 56.5683 72.4461 56.8342 72.3367C57.394 72.1072 57.4605 71.8263 57.0701 71.2386C56.9629 71.3973 56.8664 71.541 56.7163 71.7619C56.4138 70.5587 56.1972 69.4327 55.8369 68.356C55.4723 67.2622 55.1334 66.1276 54.2755 65.2525ZM51.1656 67.97C51.5216 67.3372 51.8798 66.7839 52.1543 66.1898C52.461 65.5271 52.8364 64.8493 52.9222 64.1458C53.1152 62.5737 53.1581 60.9801 53.2267 59.3952C53.2353 59.1785 53.0337 58.9533 52.9307 58.7324C52.8664 58.7517 52.8021 58.7732 52.7356 58.7925C52.9179 60.7056 52.9565 62.593 52.1093 64.3903C51.7511 65.1474 51.6396 66.0397 51.1999 66.7346C50.9082 67.1935 50.9618 67.4809 51.1656 67.97ZM70.6187 54.7474C70.5629 54.6938 70.505 54.6423 70.4492 54.5887C69.5527 55.0799 68.4374 55.2772 68.1007 56.5083C68.0213 56.8021 67.7404 57.0574 67.5087 57.289C67.0776 57.7222 66.6144 58.1233 66.1661 58.5373C66.9768 58.4472 67.7511 58.5094 68.3002 57.6021C68.9264 56.5619 69.8337 55.6911 70.6187 54.7474ZM26.6616 54.9598C25.8251 54.5373 25.1517 54.1962 24.4332 53.8338C24.92 55.9056 26.801 56.133 28.253 56.9094C27.6761 56.2037 27.0991 55.496 26.6616 54.9598ZM21.3662 51.7898C21.527 51.481 21.66 51.2257 21.8101 50.9362C21.6149 50.6316 21.4005 50.297 21.2053 49.9946C20.5082 50.4665 19.8712 50.8954 19.2343 51.3265C19.8884 51.8413 20.1779 51.9013 21.3662 51.7898ZM29.3426 60.0386C27.6182 59.2986 25.9388 58.5759 24.253 57.8509C24.1973 58.3442 24.5018 58.7474 24.9544 58.8933C26.3334 59.3394 27.7404 59.704 29.1388 60.0944C29.1881 60.1094 29.2525 60.0665 29.3426 60.0386ZM62.3248 36.1866C61.705 35.2279 60.6884 35.1249 59.7768 34.8311C59.7275 34.8161 59.6181 34.9834 59.5624 35.0391C60.5275 35.4402 61.4069 35.8048 62.3248 36.1866ZM28.7506 58.3678C27.6117 57.9432 26.5565 57.5528 25.5013 57.1603C25.4755 57.2225 25.4498 57.2847 25.4241 57.3491C26.3356 57.7501 27.2428 58.1662 28.1672 58.5373C28.3088 58.5909 28.534 58.4343 28.7506 58.3678ZM63.0347 36.504C62.9747 36.5598 62.9168 36.6177 62.8567 36.6735C63.3307 37.1239 63.8047 37.5743 64.2809 38.0268C64.3238 37.9861 64.3666 37.9432 64.4074 37.9024C63.9506 37.4348 63.4937 36.9694 63.0347 36.504Z" fill="white"/>
<path d="M62.6101 41.066C63.4809 40.5748 64.1372 40.6027 64.4954 41.4091C64.9436 42.4193 65.8809 42.9255 66.4729 43.7662C67.0884 44.6413 67.8219 45.4306 68.4525 46.2949C68.8364 46.8226 69.1496 47.4081 69.452 47.9893C69.7115 48.489 69.6257 48.9802 69.1646 49.4949C69.3769 49.6151 69.5893 49.7352 69.8016 49.8574C69.7501 49.9346 69.6986 50.0118 69.6493 50.0891C69.3598 49.9604 69.0359 49.8746 68.8043 49.6794C68.7249 49.6129 68.8493 49.2526 68.9372 49.051C69.1517 48.5598 69.2783 48.1352 68.7893 47.6869C68.4482 47.3738 68.2659 46.8955 67.9528 46.5437C66.5973 45.0124 65.1431 43.5561 63.8948 41.9432C63.5131 41.4585 62.9812 41.4863 62.6101 41.066Z" fill="white"/>
<path d="M56.0215 43.955C57.2097 44.8493 57.1582 47.2021 56.103 48.4761C56.4762 47.0048 56.6156 45.5335 56.0215 43.955Z" fill="white"/>
<path d="M51.5088 58.741C51.2729 58.9962 51.0541 59.2707 50.7967 59.5002C50.5844 59.689 50.3399 59.9185 50.0846 59.9592C49.7758 60.0085 49.2503 59.9828 49.1474 59.8026C48.905 59.3801 49.4262 59.2858 49.6814 59.1785C50.2648 58.934 50.8804 58.7667 51.483 58.5673C51.4916 58.6252 51.5002 58.6831 51.5088 58.741Z" fill="white"/>
<path d="M70.0933 50.3506C70.3077 50.6295 70.5394 50.8139 70.6123 51.0477C70.7732 51.5689 70.6059 52.0279 70.0933 52.4954C70.0933 51.7726 70.0933 51.1742 70.0933 50.3506Z" fill="white"/>
<path d="M45.1197 20.9608C45.3277 20.5147 45.5272 20.0665 45.7438 19.6268C46.2114 18.6745 47.05 18.3399 48.0366 18.3442C48.9202 18.3485 49.5315 18.8375 49.9669 19.6139C49.6323 19.6482 49.2848 19.6011 49.0296 19.734C48.7937 19.8563 48.5642 20.148 48.4998 20.4054C48.3926 20.8386 48.5706 21.2482 49.0339 21.3941C49.776 21.63 50.0226 21.0188 50.3443 20.5512C51.0778 22.0697 50.4473 23.9528 49.0039 24.5683C47.4639 25.2246 45.6516 24.5019 45.1089 22.9855C44.9953 22.6659 44.9374 22.2885 44.9888 21.9582C45.0703 21.4499 44.873 21.2397 44.4419 21.0273C43.6677 20.6456 42.9127 20.2166 42.1942 19.7383C41.7481 19.4423 41.3299 19.5625 40.8687 19.5689C40.1095 19.5818 39.3417 19.4059 38.5888 19.4659C37.6945 19.5389 36.7422 19.6247 35.9465 19.9893C35.1593 20.3496 34.5331 21.0595 33.8489 21.6322C33.7738 21.6944 33.7888 21.8616 33.7567 21.9796C33.5958 22.5694 33.48 23.1764 33.2655 23.7469C32.8022 24.9823 31.8671 25.5292 30.5567 25.4563C30.3722 25.4456 30.1856 25.4541 30.0033 25.4777C28.4012 25.675 27.1786 24.7442 26.8205 23.1657C26.5331 21.8981 26.6425 20.7464 27.4703 19.7169C28.9116 17.926 30.087 17.7887 32.2639 19.1163C32.9009 19.5045 33.287 20.3024 33.7652 20.8836C34.9985 19.097 36.9974 18.9126 39.0435 18.8375C39.2966 18.8289 39.6677 19.082 39.7642 18.578C39.7685 18.5566 40.0301 18.5673 40.1674 18.5887C42.0462 18.8847 43.6998 19.6568 45.1197 20.9608ZM32.0516 20.8751C32.0516 20.2724 31.5561 19.7255 31.0006 19.7169C30.4709 19.7083 29.9304 20.2402 29.9197 20.7785C29.9089 21.3405 30.5588 21.956 31.14 21.9346C31.6269 21.9174 32.0516 21.4241 32.0516 20.8751Z" fill="white"/>
<path d="M53.5829 23.3137C53.3234 19.0156 51.9936 15.0628 49.9753 11.3051C51.3115 13.0317 52.3625 14.9319 53.1175 16.9416C53.8832 18.9705 54.0419 21.1346 53.5829 23.3137Z" fill="white"/>
<path d="M44.2874 36.7421C44.5404 36.6842 44.7935 36.5834 45.0466 36.5791C45.808 36.5662 46.5994 36.7271 47.3265 36.5705C48.3174 36.3582 49.2589 35.9185 50.2198 35.5668C50.5565 35.4424 50.8804 35.288 51.2707 35.2665C50.2584 35.9679 49.3147 36.8644 48.0707 37.0231C46.8482 37.1818 45.5892 37.0574 44.3453 37.0574C44.326 36.9544 44.3067 36.8472 44.2874 36.7421Z" fill="white"/>
</svg>
